<mxfile host="app.diagrams.net" agent="Mozilla/5.0 (Windows NT 10.0; Win64; x64) AppleWebKit/537.36 (KHTML, like Gecko) Chrome/135.0.0.0 Safari/537.36" version="26.2.13">
  <diagram id="kgpKYQtTHZ0yAKxKKP6v" name="Page-1">
    <mxGraphModel dx="1741" dy="1752" grid="1" gridSize="10" guides="1" tooltips="1" connect="1" arrows="1" fold="1" page="1" pageScale="1" pageWidth="850" pageHeight="1100" math="0" shadow="0">
      <root>
        <mxCell id="0" />
        <mxCell id="1" parent="0" />
        <mxCell id="3nuBFxr9cyL0pnOWT2aG-1" value="Customer Order" style="shape=table;childLayout=tableLayout;startSize=40;collapsible=0;recursiveResize=0;expand=0;fillColor=none;fontStyle=1" parent="1" vertex="1">
          <mxGeometry x="-840" y="-1010" width="1080" height="860" as="geometry" />
        </mxCell>
        <mxCell id="3nuBFxr9cyL0pnOWT2aG-3" value="Customer" style="shape=tableRow;horizontal=0;swimlaneHead=0;swimlaneBody=0;top=0;left=0;bottom=0;right=0;fillColor=none;points=[[0,0.5],[1,0.5]];portConstraint=eastwest;startSize=40;collapsible=0;recursiveResize=0;expand=0;fontStyle=1;" parent="3nuBFxr9cyL0pnOWT2aG-1" vertex="1">
          <mxGeometry y="40" width="1080" height="820" as="geometry" />
        </mxCell>
        <mxCell id="3nuBFxr9cyL0pnOWT2aG-4" value="UI" style="swimlane;swimlaneHead=0;swimlaneBody=0;connectable=0;fillColor=none;startSize=40;collapsible=0;recursiveResize=0;expand=0;fontStyle=1;" parent="3nuBFxr9cyL0pnOWT2aG-3" vertex="1">
          <mxGeometry x="40" width="148" height="820" as="geometry">
            <mxRectangle width="148" height="820" as="alternateBounds" />
          </mxGeometry>
        </mxCell>
        <mxCell id="3nuBFxr9cyL0pnOWT2aG-5" style="edgeStyle=orthogonalEdgeStyle;rounded=0;orthogonalLoop=1;jettySize=auto;html=1;entryX=0.5;entryY=0;entryDx=0;entryDy=0;" parent="3nuBFxr9cyL0pnOWT2aG-4" source="3nuBFxr9cyL0pnOWT2aG-6" target="wctZVGQJHZJvY7DPYcZ1-6" edge="1">
          <mxGeometry relative="1" as="geometry">
            <mxPoint x="65" y="120" as="targetPoint" />
          </mxGeometry>
        </mxCell>
        <mxCell id="3nuBFxr9cyL0pnOWT2aG-6" value="Start" style="rounded=1;whiteSpace=wrap;html=1;arcSize=50;" parent="3nuBFxr9cyL0pnOWT2aG-4" vertex="1">
          <mxGeometry x="20" y="60" width="90" height="40" as="geometry" />
        </mxCell>
        <mxCell id="wctZVGQJHZJvY7DPYcZ1-9" value="" style="edgeStyle=orthogonalEdgeStyle;rounded=0;orthogonalLoop=1;jettySize=auto;html=1;" edge="1" parent="3nuBFxr9cyL0pnOWT2aG-4" source="wctZVGQJHZJvY7DPYcZ1-6" target="wctZVGQJHZJvY7DPYcZ1-8">
          <mxGeometry relative="1" as="geometry" />
        </mxCell>
        <mxCell id="wctZVGQJHZJvY7DPYcZ1-6" value="GetProducts" style="rounded=1;whiteSpace=wrap;html=1;" vertex="1" parent="3nuBFxr9cyL0pnOWT2aG-4">
          <mxGeometry x="20" y="130" width="90" height="60" as="geometry" />
        </mxCell>
        <mxCell id="wctZVGQJHZJvY7DPYcZ1-7" style="edgeStyle=orthogonalEdgeStyle;rounded=0;orthogonalLoop=1;jettySize=auto;html=1;exitX=0.5;exitY=1;exitDx=0;exitDy=0;" edge="1" parent="3nuBFxr9cyL0pnOWT2aG-4" source="wctZVGQJHZJvY7DPYcZ1-6" target="wctZVGQJHZJvY7DPYcZ1-6">
          <mxGeometry relative="1" as="geometry" />
        </mxCell>
        <mxCell id="wctZVGQJHZJvY7DPYcZ1-8" value="Add to cart" style="rounded=1;whiteSpace=wrap;html=1;" vertex="1" parent="3nuBFxr9cyL0pnOWT2aG-4">
          <mxGeometry x="20" y="220" width="90" height="60" as="geometry" />
        </mxCell>
        <mxCell id="3nuBFxr9cyL0pnOWT2aG-14" value="End" style="rounded=1;whiteSpace=wrap;html=1;arcSize=50;" parent="3nuBFxr9cyL0pnOWT2aG-4" vertex="1">
          <mxGeometry x="20" y="350" width="90" height="40" as="geometry" />
        </mxCell>
        <mxCell id="3nuBFxr9cyL0pnOWT2aG-8" value="API" style="swimlane;swimlaneHead=0;swimlaneBody=0;connectable=0;fillColor=none;startSize=40;collapsible=0;recursiveResize=0;expand=0;fontStyle=1;" parent="3nuBFxr9cyL0pnOWT2aG-3" vertex="1">
          <mxGeometry x="188" width="141" height="820" as="geometry">
            <mxRectangle width="141" height="820" as="alternateBounds" />
          </mxGeometry>
        </mxCell>
        <mxCell id="wctZVGQJHZJvY7DPYcZ1-36" value="" style="edgeStyle=orthogonalEdgeStyle;rounded=0;orthogonalLoop=1;jettySize=auto;html=1;" edge="1" parent="3nuBFxr9cyL0pnOWT2aG-8" source="wctZVGQJHZJvY7DPYcZ1-11" target="wctZVGQJHZJvY7DPYcZ1-25">
          <mxGeometry relative="1" as="geometry" />
        </mxCell>
        <mxCell id="wctZVGQJHZJvY7DPYcZ1-11" value="receive order&lt;br&gt;(prodID, Qty)" style="rounded=1;whiteSpace=wrap;html=1;" vertex="1" parent="3nuBFxr9cyL0pnOWT2aG-8">
          <mxGeometry x="25.5" y="60" width="90" height="60" as="geometry" />
        </mxCell>
        <mxCell id="wctZVGQJHZJvY7DPYcZ1-25" value="Send order DTO&lt;br&gt;(prodID, Qty)" style="rounded=1;whiteSpace=wrap;html=1;" vertex="1" parent="3nuBFxr9cyL0pnOWT2aG-8">
          <mxGeometry x="25.5" y="160" width="90" height="60" as="geometry" />
        </mxCell>
        <mxCell id="wctZVGQJHZJvY7DPYcZ1-37" value="Result" style="rounded=1;whiteSpace=wrap;html=1;" vertex="1" parent="3nuBFxr9cyL0pnOWT2aG-8">
          <mxGeometry x="25.5" y="340" width="90" height="60" as="geometry" />
        </mxCell>
        <mxCell id="3nuBFxr9cyL0pnOWT2aG-11" value="Service" style="swimlane;swimlaneHead=0;swimlaneBody=0;connectable=0;fillColor=none;startSize=40;collapsible=0;recursiveResize=0;expand=0;fontStyle=1;" parent="3nuBFxr9cyL0pnOWT2aG-3" vertex="1">
          <mxGeometry x="329" width="145" height="820" as="geometry">
            <mxRectangle width="145" height="820" as="alternateBounds" />
          </mxGeometry>
        </mxCell>
        <mxCell id="wctZVGQJHZJvY7DPYcZ1-13" value="Process Order" style="rounded=1;whiteSpace=wrap;html=1;" vertex="1" parent="3nuBFxr9cyL0pnOWT2aG-11">
          <mxGeometry x="27.5" y="60" width="90" height="60" as="geometry" />
        </mxCell>
        <mxCell id="wctZVGQJHZJvY7DPYcZ1-42" value="Error" style="rounded=1;whiteSpace=wrap;html=1;" vertex="1" parent="3nuBFxr9cyL0pnOWT2aG-11">
          <mxGeometry x="27.5" y="245" width="90" height="60" as="geometry" />
        </mxCell>
        <mxCell id="wctZVGQJHZJvY7DPYcZ1-46" value="Success" style="rounded=1;whiteSpace=wrap;html=1;" vertex="1" parent="3nuBFxr9cyL0pnOWT2aG-11">
          <mxGeometry x="27.5" y="440" width="90" height="60" as="geometry" />
        </mxCell>
        <mxCell id="wctZVGQJHZJvY7DPYcZ1-4" value="Business" style="swimlane;swimlaneHead=0;swimlaneBody=0;connectable=0;fillColor=none;startSize=40;collapsible=0;recursiveResize=0;expand=0;fontStyle=1;" vertex="1" parent="3nuBFxr9cyL0pnOWT2aG-3">
          <mxGeometry x="474" width="356" height="820" as="geometry">
            <mxRectangle width="356" height="820" as="alternateBounds" />
          </mxGeometry>
        </mxCell>
        <mxCell id="wctZVGQJHZJvY7DPYcZ1-20" value="check balance" style="rhombus;whiteSpace=wrap;html=1;" vertex="1" parent="wctZVGQJHZJvY7DPYcZ1-4">
          <mxGeometry x="16" y="340" width="180" height="50" as="geometry" />
        </mxCell>
        <mxCell id="wctZVGQJHZJvY7DPYcZ1-33" value="" style="edgeStyle=orthogonalEdgeStyle;rounded=0;orthogonalLoop=1;jettySize=auto;html=1;exitX=0.25;exitY=1;exitDx=0;exitDy=0;" edge="1" parent="wctZVGQJHZJvY7DPYcZ1-4" source="wctZVGQJHZJvY7DPYcZ1-28" target="wctZVGQJHZJvY7DPYcZ1-29">
          <mxGeometry relative="1" as="geometry" />
        </mxCell>
        <mxCell id="wctZVGQJHZJvY7DPYcZ1-28" value="Validate customer, price and others&lt;div&gt;&lt;br&gt;&lt;/div&gt;&lt;div&gt;customer vip level&lt;/div&gt;" style="rounded=1;whiteSpace=wrap;html=1;" vertex="1" parent="wctZVGQJHZJvY7DPYcZ1-4">
          <mxGeometry x="66" y="60" width="212.5" height="100" as="geometry" />
        </mxCell>
        <mxCell id="wctZVGQJHZJvY7DPYcZ1-34" value="" style="edgeStyle=orthogonalEdgeStyle;rounded=0;orthogonalLoop=1;jettySize=auto;html=1;" edge="1" parent="wctZVGQJHZJvY7DPYcZ1-4" source="wctZVGQJHZJvY7DPYcZ1-29" target="wctZVGQJHZJvY7DPYcZ1-20">
          <mxGeometry relative="1" as="geometry" />
        </mxCell>
        <mxCell id="wctZVGQJHZJvY7DPYcZ1-29" value="check stock" style="rhombus;whiteSpace=wrap;html=1;" vertex="1" parent="wctZVGQJHZJvY7DPYcZ1-4">
          <mxGeometry x="16" y="230" width="180" height="50" as="geometry" />
        </mxCell>
        <mxCell id="wctZVGQJHZJvY7DPYcZ1-47" value="-- stock&lt;div&gt;--balance&lt;/div&gt;&lt;div&gt;Create Order&lt;/div&gt;&lt;div&gt;create order details&lt;/div&gt;&lt;div&gt;create stock change&lt;/div&gt;" style="rounded=1;whiteSpace=wrap;html=1;" vertex="1" parent="wctZVGQJHZJvY7DPYcZ1-4">
          <mxGeometry x="46" y="420" width="212.5" height="100" as="geometry" />
        </mxCell>
        <mxCell id="wctZVGQJHZJvY7DPYcZ1-2" value="DataAccess" style="swimlane;swimlaneHead=0;swimlaneBody=0;connectable=0;fillColor=none;startSize=40;collapsible=0;recursiveResize=0;expand=0;fontStyle=1;" vertex="1" parent="3nuBFxr9cyL0pnOWT2aG-3">
          <mxGeometry x="830" width="250" height="820" as="geometry">
            <mxRectangle width="250" height="820" as="alternateBounds" />
          </mxGeometry>
        </mxCell>
        <mxCell id="wctZVGQJHZJvY7DPYcZ1-26" value="products" style="shape=cylinder3;whiteSpace=wrap;html=1;boundedLbl=1;backgroundOutline=1;size=15;" vertex="1" parent="wctZVGQJHZJvY7DPYcZ1-2">
          <mxGeometry x="60" y="690" width="130" height="80" as="geometry" />
        </mxCell>
        <mxCell id="wctZVGQJHZJvY7DPYcZ1-30" value="accounts" style="shape=cylinder3;whiteSpace=wrap;html=1;boundedLbl=1;backgroundOutline=1;size=15;" vertex="1" parent="wctZVGQJHZJvY7DPYcZ1-2">
          <mxGeometry x="60" y="360" width="130" height="80" as="geometry" />
        </mxCell>
        <mxCell id="wctZVGQJHZJvY7DPYcZ1-31" value="stockchange" style="shape=cylinder3;whiteSpace=wrap;html=1;boundedLbl=1;backgroundOutline=1;size=15;" vertex="1" parent="wctZVGQJHZJvY7DPYcZ1-2">
          <mxGeometry x="60" y="220" width="130" height="80" as="geometry" />
        </mxCell>
        <mxCell id="wctZVGQJHZJvY7DPYcZ1-32" value="customer" style="shape=cylinder3;whiteSpace=wrap;html=1;boundedLbl=1;backgroundOutline=1;size=15;" vertex="1" parent="wctZVGQJHZJvY7DPYcZ1-2">
          <mxGeometry x="60" y="80" width="130" height="80" as="geometry" />
        </mxCell>
        <mxCell id="wctZVGQJHZJvY7DPYcZ1-54" value="Order" style="shape=cylinder3;whiteSpace=wrap;html=1;boundedLbl=1;backgroundOutline=1;size=15;" vertex="1" parent="wctZVGQJHZJvY7DPYcZ1-2">
          <mxGeometry x="60" y="490" width="130" height="80" as="geometry" />
        </mxCell>
        <mxCell id="wctZVGQJHZJvY7DPYcZ1-55" value="Order Details" style="shape=cylinder3;whiteSpace=wrap;html=1;boundedLbl=1;backgroundOutline=1;size=15;" vertex="1" parent="wctZVGQJHZJvY7DPYcZ1-2">
          <mxGeometry x="60" y="590" width="130" height="80" as="geometry" />
        </mxCell>
        <mxCell id="wctZVGQJHZJvY7DPYcZ1-12" style="edgeStyle=orthogonalEdgeStyle;rounded=0;orthogonalLoop=1;jettySize=auto;html=1;entryX=0;entryY=0.5;entryDx=0;entryDy=0;" edge="1" parent="3nuBFxr9cyL0pnOWT2aG-3" source="wctZVGQJHZJvY7DPYcZ1-8" target="wctZVGQJHZJvY7DPYcZ1-11">
          <mxGeometry relative="1" as="geometry">
            <Array as="points">
              <mxPoint x="170" y="250" />
              <mxPoint x="170" y="90" />
            </Array>
          </mxGeometry>
        </mxCell>
        <mxCell id="wctZVGQJHZJvY7DPYcZ1-18" value="" style="edgeStyle=orthogonalEdgeStyle;rounded=0;orthogonalLoop=1;jettySize=auto;html=1;entryX=0;entryY=0.5;entryDx=0;entryDy=0;" edge="1" parent="3nuBFxr9cyL0pnOWT2aG-3" source="wctZVGQJHZJvY7DPYcZ1-13" target="wctZVGQJHZJvY7DPYcZ1-28">
          <mxGeometry relative="1" as="geometry">
            <mxPoint x="497.5" y="90" as="targetPoint" />
          </mxGeometry>
        </mxCell>
        <mxCell id="wctZVGQJHZJvY7DPYcZ1-35" style="edgeStyle=orthogonalEdgeStyle;rounded=0;orthogonalLoop=1;jettySize=auto;html=1;exitX=0.5;exitY=1;exitDx=0;exitDy=0;exitPerimeter=0;entryX=0;entryY=0.5;entryDx=0;entryDy=0;" edge="1" parent="3nuBFxr9cyL0pnOWT2aG-3" source="wctZVGQJHZJvY7DPYcZ1-26" target="wctZVGQJHZJvY7DPYcZ1-6">
          <mxGeometry relative="1" as="geometry">
            <Array as="points">
              <mxPoint x="975" y="770" />
              <mxPoint x="975" y="790" />
              <mxPoint x="50" y="790" />
              <mxPoint x="50" y="160" />
            </Array>
          </mxGeometry>
        </mxCell>
        <mxCell id="wctZVGQJHZJvY7DPYcZ1-38" value="" style="edgeStyle=orthogonalEdgeStyle;rounded=0;orthogonalLoop=1;jettySize=auto;html=1;" edge="1" parent="3nuBFxr9cyL0pnOWT2aG-3" source="wctZVGQJHZJvY7DPYcZ1-37" target="3nuBFxr9cyL0pnOWT2aG-14">
          <mxGeometry relative="1" as="geometry" />
        </mxCell>
        <mxCell id="wctZVGQJHZJvY7DPYcZ1-39" style="edgeStyle=orthogonalEdgeStyle;rounded=0;orthogonalLoop=1;jettySize=auto;html=1;exitX=1;exitY=0.5;exitDx=0;exitDy=0;entryX=0;entryY=0.5;entryDx=0;entryDy=0;" edge="1" parent="3nuBFxr9cyL0pnOWT2aG-3" source="wctZVGQJHZJvY7DPYcZ1-25" target="wctZVGQJHZJvY7DPYcZ1-13">
          <mxGeometry relative="1" as="geometry">
            <Array as="points">
              <mxPoint x="320" y="190" />
              <mxPoint x="320" y="90" />
            </Array>
          </mxGeometry>
        </mxCell>
        <mxCell id="wctZVGQJHZJvY7DPYcZ1-40" style="edgeStyle=orthogonalEdgeStyle;rounded=0;orthogonalLoop=1;jettySize=auto;html=1;exitX=0;exitY=0;exitDx=0;exitDy=27.5;exitPerimeter=0;entryX=1;entryY=0.5;entryDx=0;entryDy=0;" edge="1" parent="3nuBFxr9cyL0pnOWT2aG-3" source="wctZVGQJHZJvY7DPYcZ1-31" target="wctZVGQJHZJvY7DPYcZ1-29">
          <mxGeometry relative="1" as="geometry" />
        </mxCell>
        <mxCell id="wctZVGQJHZJvY7DPYcZ1-41" style="edgeStyle=orthogonalEdgeStyle;rounded=0;orthogonalLoop=1;jettySize=auto;html=1;exitX=0;exitY=0;exitDx=0;exitDy=27.5;exitPerimeter=0;entryX=1;entryY=0.5;entryDx=0;entryDy=0;" edge="1" parent="3nuBFxr9cyL0pnOWT2aG-3" source="wctZVGQJHZJvY7DPYcZ1-30" target="wctZVGQJHZJvY7DPYcZ1-20">
          <mxGeometry relative="1" as="geometry" />
        </mxCell>
        <mxCell id="wctZVGQJHZJvY7DPYcZ1-43" style="edgeStyle=orthogonalEdgeStyle;rounded=0;orthogonalLoop=1;jettySize=auto;html=1;exitX=0;exitY=0.5;exitDx=0;exitDy=0;entryX=1;entryY=0.5;entryDx=0;entryDy=0;" edge="1" parent="3nuBFxr9cyL0pnOWT2aG-3" source="wctZVGQJHZJvY7DPYcZ1-29" target="wctZVGQJHZJvY7DPYcZ1-42">
          <mxGeometry relative="1" as="geometry">
            <Array as="points">
              <mxPoint x="460" y="255" />
              <mxPoint x="460" y="275" />
            </Array>
          </mxGeometry>
        </mxCell>
        <mxCell id="wctZVGQJHZJvY7DPYcZ1-44" style="edgeStyle=orthogonalEdgeStyle;rounded=0;orthogonalLoop=1;jettySize=auto;html=1;exitX=0;exitY=0.5;exitDx=0;exitDy=0;entryX=1;entryY=0.75;entryDx=0;entryDy=0;" edge="1" parent="3nuBFxr9cyL0pnOWT2aG-3" source="wctZVGQJHZJvY7DPYcZ1-20" target="wctZVGQJHZJvY7DPYcZ1-42">
          <mxGeometry relative="1" as="geometry">
            <Array as="points">
              <mxPoint x="460" y="365" />
              <mxPoint x="460" y="290" />
            </Array>
          </mxGeometry>
        </mxCell>
        <mxCell id="wctZVGQJHZJvY7DPYcZ1-45" style="edgeStyle=orthogonalEdgeStyle;rounded=0;orthogonalLoop=1;jettySize=auto;html=1;exitX=0;exitY=0.5;exitDx=0;exitDy=0;entryX=1;entryY=0.5;entryDx=0;entryDy=0;" edge="1" parent="3nuBFxr9cyL0pnOWT2aG-3" source="wctZVGQJHZJvY7DPYcZ1-42" target="wctZVGQJHZJvY7DPYcZ1-37">
          <mxGeometry relative="1" as="geometry">
            <Array as="points">
              <mxPoint x="310" y="275" />
              <mxPoint x="310" y="370" />
            </Array>
          </mxGeometry>
        </mxCell>
        <mxCell id="wctZVGQJHZJvY7DPYcZ1-48" value="" style="edgeStyle=orthogonalEdgeStyle;rounded=0;orthogonalLoop=1;jettySize=auto;html=1;" edge="1" parent="3nuBFxr9cyL0pnOWT2aG-3" source="wctZVGQJHZJvY7DPYcZ1-47" target="wctZVGQJHZJvY7DPYcZ1-46">
          <mxGeometry relative="1" as="geometry" />
        </mxCell>
        <mxCell id="wctZVGQJHZJvY7DPYcZ1-49" style="edgeStyle=orthogonalEdgeStyle;rounded=0;orthogonalLoop=1;jettySize=auto;html=1;exitX=0;exitY=0.5;exitDx=0;exitDy=0;entryX=0.5;entryY=1;entryDx=0;entryDy=0;" edge="1" parent="3nuBFxr9cyL0pnOWT2aG-3" source="wctZVGQJHZJvY7DPYcZ1-46" target="wctZVGQJHZJvY7DPYcZ1-37">
          <mxGeometry relative="1" as="geometry" />
        </mxCell>
        <mxCell id="wctZVGQJHZJvY7DPYcZ1-50" style="edgeStyle=orthogonalEdgeStyle;rounded=0;orthogonalLoop=1;jettySize=auto;html=1;exitX=0.5;exitY=1;exitDx=0;exitDy=0;entryX=0;entryY=0;entryDx=0;entryDy=27.5;entryPerimeter=0;" edge="1" parent="3nuBFxr9cyL0pnOWT2aG-3" source="wctZVGQJHZJvY7DPYcZ1-47" target="wctZVGQJHZJvY7DPYcZ1-26">
          <mxGeometry relative="1" as="geometry" />
        </mxCell>
        <mxCell id="wctZVGQJHZJvY7DPYcZ1-56" style="edgeStyle=orthogonalEdgeStyle;rounded=0;orthogonalLoop=1;jettySize=auto;html=1;exitX=0.75;exitY=1;exitDx=0;exitDy=0;entryX=0;entryY=0;entryDx=0;entryDy=52.5;entryPerimeter=0;" edge="1" parent="3nuBFxr9cyL0pnOWT2aG-3" source="wctZVGQJHZJvY7DPYcZ1-47" target="wctZVGQJHZJvY7DPYcZ1-55">
          <mxGeometry relative="1" as="geometry" />
        </mxCell>
        <mxCell id="wctZVGQJHZJvY7DPYcZ1-57" style="edgeStyle=orthogonalEdgeStyle;rounded=0;orthogonalLoop=1;jettySize=auto;html=1;exitX=1;exitY=1;exitDx=0;exitDy=0;entryX=0;entryY=0;entryDx=0;entryDy=52.5;entryPerimeter=0;" edge="1" parent="3nuBFxr9cyL0pnOWT2aG-3" source="wctZVGQJHZJvY7DPYcZ1-47" target="wctZVGQJHZJvY7DPYcZ1-54">
          <mxGeometry relative="1" as="geometry" />
        </mxCell>
        <mxCell id="wctZVGQJHZJvY7DPYcZ1-58" style="edgeStyle=orthogonalEdgeStyle;rounded=0;orthogonalLoop=1;jettySize=auto;html=1;exitX=1;exitY=0.5;exitDx=0;exitDy=0;entryX=1;entryY=0.5;entryDx=0;entryDy=0;entryPerimeter=0;" edge="1" parent="3nuBFxr9cyL0pnOWT2aG-3" source="wctZVGQJHZJvY7DPYcZ1-47" target="wctZVGQJHZJvY7DPYcZ1-31">
          <mxGeometry relative="1" as="geometry">
            <Array as="points">
              <mxPoint x="733" y="480" />
              <mxPoint x="1070" y="480" />
              <mxPoint x="1070" y="260" />
            </Array>
          </mxGeometry>
        </mxCell>
        <mxCell id="wctZVGQJHZJvY7DPYcZ1-59" style="edgeStyle=orthogonalEdgeStyle;rounded=0;orthogonalLoop=1;jettySize=auto;html=1;exitX=1;exitY=0.25;exitDx=0;exitDy=0;entryX=0;entryY=0;entryDx=0;entryDy=52.5;entryPerimeter=0;" edge="1" parent="3nuBFxr9cyL0pnOWT2aG-3" source="wctZVGQJHZJvY7DPYcZ1-47" target="wctZVGQJHZJvY7DPYcZ1-30">
          <mxGeometry relative="1" as="geometry" />
        </mxCell>
        <mxCell id="wctZVGQJHZJvY7DPYcZ1-60" style="edgeStyle=orthogonalEdgeStyle;rounded=0;orthogonalLoop=1;jettySize=auto;html=1;exitX=0;exitY=0.5;exitDx=0;exitDy=0;exitPerimeter=0;entryX=1;entryY=0.5;entryDx=0;entryDy=0;" edge="1" parent="3nuBFxr9cyL0pnOWT2aG-3" source="wctZVGQJHZJvY7DPYcZ1-32" target="wctZVGQJHZJvY7DPYcZ1-28">
          <mxGeometry relative="1" as="geometry" />
        </mxCell>
      </root>
    </mxGraphModel>
  </diagram>
</mxfile>
